
<svg xmlns="http://www.w3.org/2000/svg" viewBox="0 0 239.55 424.07"><defs><style>.cls-1{fill:#231f20;}</style></defs><g id="Layer_2" data-name="Layer 2"><g id="Layer_1-2" data-name="Layer 1"><path class="cls-1" d="M4.31,12.43C10.63,6.5,19.41,5.07,27.78,5a183.14,183.14,0,0,1,26,2.16C70.87,9.57,89,14.44,100.06,28.65c11.43,14.64,14.09,35.15,15,53.13A105.42,105.42,0,0,1,112,113.92c-2.66,10.28-6.5,20.2-9.86,30.26-6,17.74-10.17,36.8-7.54,55.56,2.28,16.29,10.63,30.32,23.2,40.76,22.64,18.8,53.74,26,73.61,48.32,6,6.75,10.14,14.8,13.32,23.2,3.79,10,6.81,20.35,9.87,30.6q9.42,31.58,16.63,63.74,1.78,8,3.42,15.91c.65,3.15,5.47,1.82,4.82-1.33q-6.83-33.06-16-65.59-4.58-16.25-9.73-32.32c-3.11-9.71-6.41-19.54-11.77-28.27-16.38-26.67-48.45-35.5-73.09-52.16-13.12-8.87-23.76-20.61-27.9-36.23-5-18.68-1.09-38.68,4.6-56.73,3.19-10.13,7.11-20,10.07-30.23A110.61,110.61,0,0,0,120.26,87,166.36,166.36,0,0,0,117,56.45c-1.79-8.85-4.6-17.66-9.27-25.44C98.15,15.11,81.48,7.3,63.85,3.82A232.82,232.82,0,0,0,37.39.44C28.7-.26,19.44-.49,11.13,2.57A30.19,30.19,0,0,0,.77,8.89C-1.58,11.1,2,14.63,4.31,12.43Z"/></g></g></svg>
